<?xml version="1.0" standalone="no"?>
<!DOCTYPE svg PUBLIC "-//W3C//DTD SVG 20010904//EN"
 "http://www.w3.org/TR/2001/REC-SVG-20010904/DTD/svg10.dtd">
<svg version="1.0" xmlns="http://www.w3.org/2000/svg"
 width="229.000000pt" height="297.000000pt" viewBox="0 0 229.000000 297.000000"
 preserveAspectRatio="xMidYMid meet">

<g transform="translate(0.000000,297.000000) scale(0.100000,-0.100000)"
fill="#000000" stroke="none">
<path d="M1060 2961 c-74 -9 -152 -52 -221 -120 -65 -66 -102 -131 -119 -216
-15 -70 -8 -180 15 -244 l15 -44 -63 -66 c-103 -107 -167 -218 -196 -335 -18
-71 -15 -221 4 -297 20 -79 73 -191 114 -243 17 -21 31 -40 31 -41 0 -1 -33
-28 -74 -59 -97 -74 -240 -224 -299 -314 -105 -157 -189 -369 -222 -560 -14
-79 -35 -308 -35 -379 l0 -33 1135 0 1136 0 -6 108 c-10 177 -25 300 -51 401
-81 321 -254 595 -479 762 -47 35 -85 67 -85 72 0 5 14 28 31 53 87 127 124
262 116 424 -9 179 -58 290 -193 438 l-71 77 14 40 c24 67 28 191 9 265 -33
127 -145 252 -258 288 -73 24 -169 32 -248 23z"/>
</g>
</svg>
