<?xml version="1.0" standalone="no"?>
<!DOCTYPE svg PUBLIC "-//W3C//DTD SVG 20010904//EN"
 "http://www.w3.org/TR/2001/REC-SVG-20010904/DTD/svg10.dtd">
<svg version="1.0" xmlns="http://www.w3.org/2000/svg"
 width="357.000000pt" height="334.000000pt" viewBox="0 0 357.000000 334.000000"
 preserveAspectRatio="xMidYMid meet">

<g transform="translate(0.000000,334.000000) scale(0.100000,-0.100000)"
fill="#000000" stroke="none">
<path d="M1696 3315 c-118 -42 -183 -168 -156 -299 12 -60 46 -110 103 -150
32 -24 37 -33 37 -67 0 -42 -56 -333 -139 -720 -28 -130 -51 -240 -51 -243 0
-3 -4 -6 -9 -6 -10 0 -53 108 -246 613 l-117 308 46 49 c60 64 76 103 76 183
0 122 -78 222 -193 248 -228 50 -400 -230 -247 -404 22 -24 64 -57 95 -73 l56
-29 -5 -190 c-4 -104 -9 -324 -12 -488 -4 -164 -10 -297 -15 -295 -8 3 -351
527 -433 662 -25 42 -46 84 -46 95 0 10 12 40 26 66 32 56 43 161 24 219 -36
111 -188 189 -304 156 -56 -15 -118 -67 -154 -128 -23 -39 -27 -58 -27 -117 1
-119 63 -200 186 -241 l62 -21 113 -569 c75 -378 120 -582 134 -609 11 -22 52
-76 91 -120 80 -92 158 -203 168 -242 15 -55 -5 -120 -58 -191 -67 -89 -146
-271 -145 -333 1 -55 37 -123 83 -157 94 -69 524 -174 834 -203 82 -7 223 -10
395 -6 225 4 291 9 422 31 275 47 548 122 611 168 25 19 82 105 63 96 -171
-83 -409 -150 -684 -192 -340 -53 -766 -46 -1110 19 -179 34 -452 110 -522
146 -42 22 -57 57 -40 94 16 34 56 41 122 23 30 -8 114 -32 185 -52 311 -88
522 -116 865 -116 374 0 644 41 988 151 132 41 155 39 197 -21 l17 -25 -6 37
c-4 21 -18 62 -31 90 -14 29 -25 67 -25 83 0 50 -19 101 -57 157 -49 73 -63
109 -63 165 0 42 7 59 54 128 30 44 86 116 125 160 39 44 78 95 87 113 9 19
65 282 125 585 60 304 111 561 114 572 3 14 20 25 62 37 154 45 233 206 169
343 -28 62 -104 131 -160 146 -110 30 -244 -32 -292 -135 -43 -91 -29 -197 37
-277 l21 -26 -248 -383 c-204 -315 -249 -378 -255 -361 -5 11 -11 197 -14 413
-3 216 -8 427 -10 469 l-5 75 51 24 c61 29 134 107 149 158 48 174 -102 352
-275 327 -117 -18 -206 -115 -213 -231 -6 -83 16 -142 76 -206 l44 -48 -26
-70 c-133 -359 -330 -860 -337 -853 -14 15 -199 919 -199 974 0 20 17 44 63
91 73 73 93 124 84 214 -16 159 -180 263 -331 209z m359 -1945 c256 -19 593
-88 783 -162 63 -25 90 -63 71 -101 -7 -12 -17 -25 -23 -29 -23 -15 -85 -7
-198 26 -332 98 -498 120 -903 121 -409 0 -539 -17 -890 -115 -198 -55 -225
-55 -242 -2 -13 39 -6 59 30 81 76 47 465 140 727 175 126 17 452 20 645 6z
m679 -410 c58 -22 56 -98 -1 -122 -40 -16 -1866 -16 -1906 0 -39 16 -55 56
-36 90 8 14 25 29 39 33 40 11 1875 10 1904 -1z m-1842 -300 c341 -95 494
-115 888 -115 388 0 543 20 871 110 153 42 171 43 199 8 24 -31 20 -68 -10
-94 -27 -24 -212 -75 -432 -120 -159 -33 -227 -41 -388 -50 -201 -10 -491 -5
-640 12 -185 22 -551 106 -636 147 -36 16 -57 52 -47 79 5 16 42 63 49 63 2 0
68 -18 146 -40z"/>
</g>
</svg>
