<?xml version="1.0" standalone="no"?>
<!DOCTYPE svg PUBLIC "-//W3C//DTD SVG 20010904//EN"
 "http://www.w3.org/TR/2001/REC-SVG-20010904/DTD/svg10.dtd">
<svg version="1.0" xmlns="http://www.w3.org/2000/svg"
 width="267.000000pt" height="292.000000pt" viewBox="0 0 267.000000 292.000000"
 preserveAspectRatio="xMidYMid meet">

<g transform="translate(0.000000,292.000000) scale(0.100000,-0.100000)"
fill="#000000" stroke="none">
<path d="M250 2902 c-42 -13 -49 -56 -49 -291 -1 -269 -5 -260 154 -391 l115
-94 0 -592 0 -591 -50 -77 c-27 -42 -61 -81 -75 -88 -34 -15 -42 -52 -48 -211
-3 -76 -8 -142 -12 -145 -4 -4 -56 -10 -117 -13 -157 -9 -154 -5 -151 -204 1
-84 6 -162 12 -173 10 -18 26 -20 203 -27 106 -4 687 -5 1290 -3 1011 3 1099
4 1114 20 22 22 34 290 14 337 -15 38 -27 42 -135 48 -145 7 -135 -1 -136 101
0 48 -4 123 -8 166 -6 67 -10 81 -30 95 -40 28 -68 60 -105 122 l-36 60 1 587
0 587 120 98 c83 68 125 109 135 134 12 28 14 81 12 274 -3 213 -5 240 -21
256 -16 16 -40 18 -233 18 -215 0 -216 0 -235 -24 -14 -17 -19 -39 -19 -87 l0
-64 -159 0 -159 0 -4 70 c-2 38 -9 75 -15 81 -21 21 -92 29 -283 28 -183 0
-271 -7 -288 -24 -4 -3 -9 -39 -12 -78 l-5 -72 -160 0 -160 0 -3 66 c-5 104
-4 104 -241 106 -108 1 -207 -1 -221 -5z m2186 -493 c31 -31 10 -57 -54 -65
-75 -10 -2020 -10 -2095 0 -58 8 -58 8 -55 39 3 30 6 32 48 38 25 3 516 6
1092 5 956 -1 1049 -2 1064 -17z m-286 -229 c15 -8 20 -19 18 -38 -3 -23 -9
-28 -51 -35 -26 -4 -393 -6 -816 -5 -814 3 -801 2 -801 49 0 10 6 21 13 26 22
14 371 21 999 17 432 -2 624 -6 638 -14z m6 -1201 c8 -7 14 -24 12 -38 -3 -23
-9 -27 -53 -33 -65 -8 -1449 -10 -1538 -1 -61 5 -68 8 -73 30 -4 14 -1 30 5
36 18 18 352 25 1034 21 452 -2 602 -6 613 -15z m69 -187 c22 -6 30 -14 30
-32 0 -18 -8 -26 -30 -32 -40 -12 -1415 -23 -1628 -13 -150 6 -169 9 -178 26
-6 13 -6 25 1 39 9 16 24 20 93 23 148 8 1681 -2 1712 -11z m122 -385 c17 -16
16 -18 -5 -40 l-23 -22 -482 -5 c-265 -3 -708 -3 -984 0 -491 5 -503 5 -523
26 -24 24 -18 51 13 57 12 3 464 4 1004 3 922 -1 983 -2 1000 -19z"/>
</g>
</svg>
