<?xml version="1.0" standalone="no"?>
<!DOCTYPE svg PUBLIC "-//W3C//DTD SVG 20010904//EN"
 "http://www.w3.org/TR/2001/REC-SVG-20010904/DTD/svg10.dtd">
<svg version="1.0" xmlns="http://www.w3.org/2000/svg"
 width="318.000000pt" height="322.000000pt" viewBox="0 0 318.000000 322.000000"
 preserveAspectRatio="xMidYMid meet">

<g transform="translate(0.000000,322.000000) scale(0.100000,-0.100000)"
fill="#000000" stroke="none">
<path d="M1523 3209 c-59 -11 -99 -34 -149 -85 -105 -108 -111 -281 -15 -403
l31 -39 -98 -57 c-136 -81 -226 -151 -315 -245 -175 -182 -267 -397 -267 -619
0 -128 19 -211 66 -302 39 -73 134 -185 178 -208 14 -8 26 -18 26 -22 0 -4
-18 -29 -40 -55 -47 -56 -95 -151 -106 -208 -6 -36 -5 -39 12 -30 25 12 1364
17 1437 6 l57 -9 0 26 c0 33 -66 165 -108 219 -18 22 -32 42 -32 46 0 3 38 42
83 88 133 131 181 254 180 453 -2 173 -51 324 -154 477 -90 132 -290 308 -449
395 -39 21 -70 41 -70 44 0 4 15 30 34 57 87 129 70 307 -36 398 -71 60 -179
90 -265 73z m107 -937 c20 -16 23 -30 28 -115 l5 -97 89 0 c81 0 91 -2 113
-25 32 -32 31 -55 -3 -89 -25 -23 -39 -27 -114 -33 l-85 -6 -6 -83 c-6 -96
-23 -134 -63 -134 -59 0 -84 43 -84 145 0 28 -4 55 -8 61 -4 6 -43 14 -87 18
-44 4 -90 14 -102 22 -46 29 -38 95 13 114 14 6 59 10 99 10 86 0 80 -8 89
120 4 61 9 78 27 93 27 22 61 22 89 -1z m454 -965 c48 -32 43 -97 -10 -117
-15 -6 -223 -10 -497 -10 -532 0 -517 -2 -517 69 0 24 6 44 16 52 24 20 209
27 630 25 312 -2 355 -4 378 -19z"/>
<path d="M810 794 c0 -85 23 -138 75 -182 47 -38 161 -85 275 -113 101 -24
114 -28 109 -33 -10 -10 -223 -26 -464 -36 -274 -11 -430 -24 -505 -42 -82
-20 -162 -68 -232 -139 -61 -61 -68 -73 -68 -108 0 -49 33 -91 93 -120 56 -27
139 -27 249 -1 72 17 140 21 503 30 485 11 550 15 663 37 70 15 90 15 140 4
105 -23 214 -30 657 -41 327 -8 457 -14 505 -25 36 -9 99 -18 141 -22 86 -6
128 9 193 70 70 66 40 119 -129 231 -44 29 -100 60 -124 70 -73 28 -220 45
-546 61 -170 8 -337 18 -370 21 -69 7 -109 23 -59 24 34 0 205 47 269 74 72
30 134 79 155 121 21 44 39 185 23 185 -5 0 -22 -14 -38 -30 l-29 -30 -620 0
c-711 1 -804 5 -841 40 l-25 23 0 -69z"/>
</g>
</svg>
