<?xml version="1.0" standalone="no"?>
<!DOCTYPE svg PUBLIC "-//W3C//DTD SVG 20010904//EN"
 "http://www.w3.org/TR/2001/REC-SVG-20010904/DTD/svg10.dtd">
<svg version="1.0" xmlns="http://www.w3.org/2000/svg"
 width="323.000000pt" height="327.000000pt" viewBox="0 0 323.000000 327.000000"
 preserveAspectRatio="xMidYMid meet">

<g transform="translate(0.000000,327.000000) scale(0.100000,-0.100000)"
fill="#000000" stroke="none">
<path d="M1571 3231 c-14 -14 -22 -41 -27 -90 l-7 -71 -61 0 c-112 0 -156 -24
-156 -83 0 -40 24 -51 126 -55 l94 -4 0 -122 0 -121 -44 -18 c-59 -24 -172
-144 -210 -222 -27 -54 -30 -73 -35 -192 l-6 -131 -85 51 c-246 146 -511 193
-715 126 -260 -86 -446 -364 -433 -648 10 -207 113 -379 335 -558 132 -105
172 -130 184 -112 16 25 4 43 -61 91 -185 136 -278 236 -346 369 -65 130 -78
241 -44 373 90 354 419 500 833 370 244 -77 475 -242 639 -457 l59 -78 78 98
c244 306 522 466 832 480 141 7 234 -11 342 -64 94 -47 221 -171 263 -258 28
-57 29 -66 28 -195 0 -116 -3 -143 -23 -192 -55 -141 -201 -312 -371 -433
-114 -82 -150 -114 -150 -134 0 -24 -41 -61 -68 -61 -11 0 -55 16 -97 35 -255
116 -579 171 -950 162 -296 -7 -490 -42 -715 -129 -211 -81 -187 -75 -220 -56
l-30 17 0 -114 c0 -63 4 -115 9 -115 4 0 46 18 92 39 181 84 376 137 613 166
150 19 473 21 621 5 232 -26 500 -97 653 -174 40 -20 76 -36 82 -36 6 0 10 42
10 113 l0 112 117 80 c204 139 363 308 438 466 45 95 65 248 46 343 -56 275
-322 493 -636 522 -145 13 -301 -21 -480 -105 -48 -23 -92 -41 -96 -41 -5 0
-9 25 -9 55 0 79 -18 152 -54 220 -43 83 -135 178 -202 210 l-54 26 0 119 0
120 84 0 c103 0 129 9 146 50 12 29 11 33 -14 58 -24 25 -34 27 -121 30 l-95
4 0 69 c0 56 -4 73 -20 89 -25 25 -64 26 -89 1z"/>
<path d="M515 2076 c-124 -31 -234 -124 -276 -234 -67 -176 -13 -361 152 -518
62 -59 297 -224 319 -224 6 0 66 16 133 35 186 54 351 84 523 95 86 6 160 13
165 16 15 9 10 197 -5 242 -21 58 -106 181 -181 261 -222 235 -600 384 -830
327z"/>
<path d="M2457 2080 c-126 -22 -270 -81 -392 -163 -136 -91 -315 -306 -351
-420 -8 -29 -18 -100 -21 -159 l-6 -108 73 0 c140 0 388 -47 588 -110 116 -38
142 -38 206 1 372 227 540 512 432 733 -80 163 -312 262 -529 226z"/>
<path d="M1380 764 c-231 -20 -459 -73 -653 -150 -131 -52 -140 -54 -163 -40
-13 9 -26 16 -29 16 -3 0 -5 -52 -5 -115 0 -63 2 -115 5 -115 3 0 40 17 83 39
149 74 343 130 582 168 162 25 567 25 730 0 257 -40 444 -94 602 -173 37 -19
70 -34 73 -34 3 0 5 52 5 115 0 63 -3 115 -7 115 -5 0 -17 -7 -27 -15 -24 -18
-30 -16 -168 41 -224 93 -485 142 -793 148 -104 2 -210 2 -235 0z"/>
<path d="M1235 425 c-140 -21 -277 -52 -375 -84 -110 -37 -250 -100 -250 -113
0 -12 142 -77 241 -111 232 -80 434 -111 719 -112 331 0 544 40 820 152 91 38
140 63 140 74 0 8 -136 70 -225 102 -102 36 -280 74 -435 91 -164 19 -507 19
-635 1z"/>
</g>
</svg>
