<?xml version="1.0" standalone="no"?>
<!DOCTYPE svg PUBLIC "-//W3C//DTD SVG 20010904//EN"
 "http://www.w3.org/TR/2001/REC-SVG-20010904/DTD/svg10.dtd">
<svg version="1.0" xmlns="http://www.w3.org/2000/svg"
 width="311.000000pt" height="311.000000pt" viewBox="0 0 311.000000 311.000000"
 preserveAspectRatio="xMidYMid meet">

<g transform="translate(0.000000,311.000000) scale(0.100000,-0.100000)"
fill="#000000" stroke="none">
<path d="M1413 3075 c-57 -29 -137 -109 -189 -191 -34 -53 -49 -64 -89 -64
-40 0 -53 10 -107 82 -85 115 -184 179 -252 162 -32 -8 -72 -52 -78 -87 -8
-42 9 -198 27 -250 15 -45 15 -50 -5 -93 -11 -26 -51 -90 -89 -143 -174 -242
-527 -894 -595 -1099 -54 -162 -19 -377 78 -480 57 -61 150 -92 278 -92 53 0
59 -2 72 -28 18 -35 54 -52 111 -52 88 0 145 38 245 160 90 112 157 175 296
275 157 114 276 210 383 311 l94 89 -6 -80 c-8 -106 -48 -239 -103 -347 -48
-92 -101 -157 -313 -382 -255 -270 -315 -390 -323 -639 -2 -69 1 -100 10 -109
11 -11 221 -13 1113 -13 1078 0 1101 0 1115 19 11 16 14 77 14 320 0 166 -5
364 -10 441 -89 1223 -496 1838 -1325 2005 -55 11 -110 22 -121 25 -17 4 -23
15 -28 52 -18 122 -69 215 -126 228 -16 4 -43 -4 -77 -20z m591 -413 c315
-107 535 -317 711 -677 142 -292 226 -627 267 -1065 14 -150 18 -883 5 -896
-4 -5 -53 -10 -107 -12 l-99 -4 0 398 c0 522 -18 756 -77 1022 -51 227 -160
493 -273 664 -59 89 -177 217 -254 277 -84 64 -198 126 -310 166 -56 21 -106
41 -111 45 -7 7 16 96 32 124 9 15 101 -2 216 -42z m-1017 -258 c22 -22 25
-32 21 -78 -8 -94 -88 -225 -161 -263 -37 -18 -87 -10 -113 18 -29 32 -25 120
9 186 72 141 180 201 244 137z m-563 -1005 c44 -38 55 -83 31 -128 -20 -39
-70 -71 -112 -71 -67 0 -128 89 -103 151 34 80 121 103 184 48z"/>
</g>
</svg>
