<?xml version="1.0" standalone="no"?>
<!DOCTYPE svg PUBLIC "-//W3C//DTD SVG 20010904//EN"
 "http://www.w3.org/TR/2001/REC-SVG-20010904/DTD/svg10.dtd">
<svg version="1.0" xmlns="http://www.w3.org/2000/svg"
 width="358.000000pt" height="328.000000pt" viewBox="0 0 358.000000 328.000000"
 preserveAspectRatio="xMidYMid meet">

<g transform="translate(0.000000,328.000000) scale(0.100000,-0.100000)"
fill="#000000" stroke="none">
<path d="M1690 3240 c-184 -86 -200 -337 -28 -446 24 -15 38 -32 38 -45 0 -20
-153 -806 -187 -962 -9 -42 -20 -74 -24 -70 -14 17 -310 748 -364 902 l-23 64
46 31 c96 65 130 200 78 312 -73 156 -282 189 -403 62 -110 -114 -76 -323 63
-391 l44 -21 0 -495 c0 -273 -4 -502 -9 -509 -5 -9 -37 34 -101 135 -265 419
-315 500 -341 549 l-28 54 32 60 c89 174 -24 370 -214 370 -80 0 -129 -19
-181 -71 -147 -147 -69 -382 140 -423 53 -11 58 -15 69 -47 13 -40 84 -445
143 -814 21 -137 46 -271 55 -296 10 -28 46 -81 91 -135 42 -49 103 -129 136
-178 l60 -89 -11 -55 c-11 -57 -18 -70 -85 -168 -35 -51 -60 -106 -113 -248
-29 -80 29 -195 117 -230 41 -16 172 -36 395 -58 181 -18 1216 -18 1410 0 242
23 357 42 399 65 78 44 107 154 65 247 -11 25 -25 71 -30 104 -10 61 -46 143
-73 165 -16 13 -40 82 -51 144 -5 34 0 45 55 126 33 48 90 121 126 162 91 101
108 143 139 339 67 416 148 886 159 918 12 34 17 37 67 48 73 14 109 35 156
88 65 74 79 153 42 250 -70 187 -338 212 -444 42 -27 -44 -30 -58 -30 -131 0
-69 4 -89 27 -134 l28 -52 -24 -47 c-22 -42 -143 -238 -362 -581 l-79 -125 -7
50 c-3 27 -7 243 -7 481 l-1 432 58 40 c70 50 99 91 112 159 31 164 -80 302
-242 302 -74 0 -129 -22 -176 -70 -46 -45 -63 -84 -69 -151 -9 -91 11 -144 78
-211 l57 -58 -33 -92 c-76 -218 -333 -830 -345 -823 -4 3 -10 17 -13 32 -2 16
-48 242 -101 504 -53 262 -96 486 -96 497 0 13 15 31 42 49 22 15 55 45 72 66
30 38 31 41 31 147 0 106 -1 109 -31 147 -76 94 -205 129 -304 83z m162 -135
c80 -54 67 -154 -26 -202 -36 -19 -66 -11 -111 28 -31 27 -35 37 -35 79 0 53
17 80 65 105 42 21 65 19 107 -10z m-782 -94 c36 -26 51 -61 46 -104 -12 -104
-154 -140 -206 -54 -37 60 -21 124 40 165 39 26 78 24 120 -7z m1588 -66 c44
-48 45 -100 1 -150 -28 -31 -37 -35 -80 -35 -40 0 -55 5 -81 29 -29 26 -33 36
-33 79 0 113 117 159 193 77z m-2336 -251 c15 -8 34 -28 43 -44 45 -86 -22
-180 -119 -167 -116 16 -132 175 -22 223 32 14 52 11 98 -12z m3059 -7 c90
-60 55 -193 -52 -204 -59 -6 -104 22 -120 75 -32 109 78 192 172 129z m-1492
-692 c49 -242 93 -459 97 -483 l7 -42 -202 0 c-110 0 -201 4 -201 9 0 10 130
653 165 816 27 128 33 150 40 144 2 -2 44 -202 94 -444z m-744 193 c129 -321
275 -700 275 -712 0 -10 -24 -15 -85 -20 -47 -3 -123 -9 -168 -12 l-84 -6 -6
77 c-10 119 -8 827 2 821 5 -3 35 -70 66 -148z m1372 -558 l-2 -185 -75 3
c-96 4 -272 21 -278 27 -2 2 74 197 169 432 l174 428 7 -260 c5 -143 7 -343 5
-445z m-1840 147 c99 -155 189 -298 201 -319 l22 -36 -37 -6 c-113 -19 -259
-34 -264 -28 -6 6 -119 651 -119 676 0 21 33 -27 197 -287z m2388 67 c-47
-293 -75 -448 -83 -456 -4 -3 -70 4 -147 16 -110 17 -139 25 -137 37 6 28 391
633 398 626 2 -2 -12 -102 -31 -223z m-990 -524 c362 -10 487 -19 710 -51 162
-23 175 -26 175 -43 0 -19 -180 -211 -201 -214 -10 -2 -76 4 -146 13 -71 8
-283 20 -473 27 -399 13 -942 0 -1180 -28 l-145 -17 -67 69 c-73 76 -128 142
-128 155 0 12 24 17 194 39 432 57 672 67 1261 50z m240 -405 c146 -5 311 -20
348 -31 16 -5 17 -14 11 -102 -4 -54 -7 -98 -8 -98 0 -1 -24 2 -52 6 -211 34
-716 53 -1076 40 -270 -9 -549 -30 -610 -45 -23 -6 -23 -5 -24 94 0 79 3 102
14 106 87 33 825 49 1397 30z m6 -330 c210 -17 340 -32 392 -46 48 -13 77 -57
77 -119 0 -29 11 -67 30 -108 34 -73 34 -72 18 -95 -15 -20 -255 -50 -533 -67
-316 -19 -954 -9 -1285 20 -298 26 -356 54 -301 144 10 17 26 57 35 88 22 77
55 114 119 133 67 20 246 43 417 54 232 14 837 12 1031 -4z"/>
</g>
</svg>
