<?xml version="1.0" standalone="no"?>
<!DOCTYPE svg PUBLIC "-//W3C//DTD SVG 20010904//EN"
 "http://www.w3.org/TR/2001/REC-SVG-20010904/DTD/svg10.dtd">
<svg version="1.0" xmlns="http://www.w3.org/2000/svg"
 width="322.000000pt" height="324.000000pt" viewBox="0 0 322.000000 324.000000"
 preserveAspectRatio="xMidYMid meet">

<g transform="translate(0.000000,324.000000) scale(0.100000,-0.100000)"
fill="#000000" stroke="none">
<path d="M1567 3220 c-22 -17 -26 -31 -32 -95 l-7 -75 -82 0 c-97 0 -130 -14
-134 -55 -6 -59 42 -84 161 -85 l57 0 0 -117 0 -118 -56 -29 c-66 -35 -149
-123 -195 -209 -32 -59 -34 -68 -37 -182 -2 -66 -5 -126 -7 -132 -3 -8 -32 4
-85 36 -103 63 -205 106 -317 132 -74 18 -110 21 -230 17 l-142 -4 -97 -48
c-138 -69 -221 -153 -292 -296 -61 -124 -71 -166 -72 -280 0 -252 122 -442
431 -673 43 -32 80 -64 83 -73 3 -9 6 -149 7 -312 0 -163 3 -315 7 -337 7 -40
8 -40 132 -102 172 -85 345 -139 537 -168 117 -18 544 -21 673 -5 227 29 432
88 595 173 74 39 104 60 115 82 12 24 15 90 18 333 l4 302 102 70 c277 189
433 376 487 588 23 90 24 153 4 247 -25 119 -66 188 -175 296 -80 80 -111 104
-182 138 -106 51 -194 71 -324 71 -164 0 -279 -28 -436 -106 -48 -24 -90 -44
-93 -44 -3 0 -5 24 -5 53 0 82 -19 165 -52 231 -40 79 -129 171 -200 207 l-58
29 0 115 0 115 73 1 c98 2 126 9 149 40 19 24 19 28 4 56 -20 40 -31 43 -137
43 l-89 0 0 70 c0 62 -3 74 -25 95 -29 30 -45 31 -78 5z m100 -691 c47 -23
113 -92 147 -154 18 -34 21 -57 21 -150 0 -141 -15 -184 -109 -317 -40 -57
-84 -122 -97 -145 -13 -24 -27 -43 -31 -43 -4 0 -35 37 -69 83 -114 153 -165
300 -157 449 7 120 57 206 157 270 54 33 80 35 138 7z m-822 -379 c218 -69
442 -237 587 -440 91 -129 97 -148 97 -321 1 -123 -2 -149 -15 -160 -11 -9
-64 -16 -158 -21 -212 -11 -396 -47 -611 -120 l-120 -41 -40 23 c-70 40 -188
133 -260 205 -200 198 -243 398 -134 618 68 137 156 218 287 264 59 21 80 23
182 19 80 -3 136 -11 185 -26z m1804 15 c149 -35 324 -170 385 -297 26 -53 28
-66 28 -178 0 -113 -2 -124 -31 -185 -41 -88 -102 -165 -213 -269 -89 -84
-256 -206 -282 -206 -7 0 -62 19 -122 41 -206 78 -497 139 -664 139 l-80 0 0
123 c0 159 12 234 48 312 121 257 370 460 637 520 81 18 216 18 294 0z m-726
-1106 c164 -23 333 -65 448 -112 l84 -33 3 -79 c2 -43 -1 -82 -5 -86 -5 -5
-70 12 -145 36 -240 77 -437 105 -747 105 -313 0 -517 -29 -764 -110 -70 -22
-132 -38 -137 -35 -6 3 -10 41 -10 83 l0 77 78 33 c120 50 187 71 317 97 285
56 590 65 878 24z m-159 -309 c242 -15 415 -52 614 -130 l82 -33 0 -83 c0 -52
-4 -84 -10 -84 -6 0 -68 18 -138 39 -269 82 -430 105 -747 105 -322 0 -556
-34 -790 -113 -62 -21 -116 -36 -119 -33 -3 3 -6 40 -6 82 l0 77 68 31 c89 41
170 66 305 96 251 56 408 66 741 46z m107 -331 c57 -5 145 -19 194 -30 103
-22 296 -78 308 -89 11 -10 -117 -65 -221 -96 -193 -56 -304 -69 -592 -69
-288 0 -399 13 -592 69 -93 27 -232 86 -223 94 21 21 317 94 505 125 55 9 524
6 621 -4z"/>
</g>
</svg>
