<?xml version="1.0" standalone="no"?>
<!DOCTYPE svg PUBLIC "-//W3C//DTD SVG 20010904//EN"
 "http://www.w3.org/TR/2001/REC-SVG-20010904/DTD/svg10.dtd">
<svg version="1.0" xmlns="http://www.w3.org/2000/svg"
 width="312.000000pt" height="310.000000pt" viewBox="0 0 312.000000 310.000000"
 preserveAspectRatio="xMidYMid meet">

<g transform="translate(0.000000,310.000000) scale(0.100000,-0.100000)"
fill="#000000" stroke="none">
<path d="M1394 3062 c-58 -43 -122 -110 -166 -175 -45 -66 -76 -85 -113 -71
-14 5 -58 47 -98 93 -102 119 -135 143 -201 149 -51 4 -57 2 -86 -26 -29 -30
-30 -32 -30 -131 0 -75 5 -117 21 -164 l21 -64 -25 -49 c-14 -27 -55 -92 -93
-143 -168 -234 -526 -900 -594 -1105 -20 -61 -22 -82 -17 -175 7 -127 24 -187
73 -258 57 -83 102 -104 236 -113 l110 -8 38 -41 c37 -40 39 -41 105 -41 93 0
124 18 214 124 133 158 153 176 316 299 188 141 290 223 401 324 45 40 83 73
86 73 13 0 -18 -170 -49 -265 -56 -174 -95 -230 -339 -492 -165 -177 -229
-259 -283 -363 -53 -102 -73 -184 -75 -308 -1 -92 1 -105 18 -118 17 -12 182
-14 1108 -14 1075 0 1088 0 1108 20 19 19 20 33 20 324 0 853 -127 1431 -408
1856 -31 48 -104 134 -166 196 -208 209 -435 325 -771 393 l-130 26 -11 63
c-16 91 -41 147 -80 182 -45 39 -88 40 -140 2z m80 -170 c22 -154 29 -183 44
-191 10 -5 82 -21 162 -35 331 -61 560 -172 750 -365 284 -287 446 -721 510
-1361 11 -114 30 -555 30 -712 l0 -98 -995 0 -995 0 0 33 c0 47 26 143 59 212
33 72 95 150 244 309 357 381 414 497 451 926 11 122 21 184 40 239 47 136 30
227 -40 219 -34 -4 -46 -25 -70 -122 -41 -165 -228 -363 -627 -663 -171 -129
-223 -177 -323 -298 -70 -86 -116 -126 -129 -113 -3 3 8 37 25 76 37 87 39
134 6 167 -31 31 -91 43 -125 24 -35 -20 -61 -75 -61 -131 l0 -46 -49 -4
c-108 -7 -161 18 -199 94 -57 114 -48 235 31 416 92 209 369 710 485 877 120
172 144 212 163 277 l20 66 -25 82 c-14 44 -26 95 -26 112 l0 32 34 -33 c19
-19 59 -69 88 -112 l53 -79 134 3 134 2 42 69 c48 79 132 179 145 171 4 -3 11
-22 14 -43z"/>
<path d="M832 2376 c-54 -51 -88 -111 -101 -181 -13 -69 2 -113 45 -131 31
-13 39 -13 70 2 74 35 154 170 154 261 0 44 -4 55 -26 72 -45 35 -88 28 -142
-23z"/>
<path d="M279 1392 c-27 -24 -32 -36 -33 -76 -1 -42 3 -51 31 -77 44 -38 74
-44 118 -24 70 34 85 111 34 170 -27 30 -37 35 -75 35 -34 0 -51 -6 -75 -28z"/>
</g>
</svg>
