<?xml version="1.0" standalone="no"?>
<!DOCTYPE svg PUBLIC "-//W3C//DTD SVG 20010904//EN"
 "http://www.w3.org/TR/2001/REC-SVG-20010904/DTD/svg10.dtd">
<svg version="1.0" xmlns="http://www.w3.org/2000/svg"
 width="267.000000pt" height="293.000000pt" viewBox="0 0 267.000000 293.000000"
 preserveAspectRatio="xMidYMid meet">

<g transform="translate(0.000000,293.000000) scale(0.100000,-0.100000)"
fill="#000000" stroke="none">
<path d="M240 2908 c-13 -7 -27 -24 -31 -38 -4 -14 -7 -133 -8 -265 l-1 -240
135 -135 135 -135 0 -573 0 -574 -50 -71 c-27 -40 -62 -80 -78 -89 -38 -22
-42 -46 -42 -224 l0 -144 -115 0 c-109 0 -117 -2 -140 -24 -29 -29 -39 -98
-33 -236 3 -94 5 -101 33 -130 l29 -30 1268 0 1268 0 26 39 c25 38 25 42 22
184 -3 137 -4 147 -27 171 -23 24 -30 26 -140 28 l-116 3 -3 172 c-1 104 -6
173 -12 173 -20 0 -91 74 -125 130 l-35 58 0 568 0 569 135 135 135 135 0 243
c0 274 -4 296 -63 307 -17 4 -117 5 -220 3 -185 -3 -189 -4 -208 -27 -14 -17
-19 -39 -19 -87 l0 -64 -160 0 -160 0 0 44 c0 133 -6 136 -304 136 -218 0
-271 -6 -288 -33 -4 -7 -8 -42 -8 -79 l0 -68 -165 0 -165 0 0 68 c0 107 1 106
-244 110 -148 2 -208 -1 -226 -10z m334 -190 c5 -61 10 -77 32 -95 25 -23 30
-23 268 -23 296 0 288 -3 296 112 l5 73 160 0 160 0 6 -73 c8 -111 -4 -106
281 -110 165 -2 250 1 269 8 34 14 49 54 49 127 l0 54 118 -3 117 -3 3 -162 2
-163 -1000 0 -1000 0 0 165 0 165 114 0 113 0 7 -72z m1590 -473 l-67 -75
-756 0 -757 0 -74 75 -74 75 897 0 898 0 -67 -75z m-104 -680 l0 -545 -725 0
-725 0 0 545 0 545 725 0 725 0 0 -545z m29 -680 c23 -41 41 -79 41 -85 0 -7
-248 -10 -795 -10 -437 0 -795 3 -795 6 0 4 19 42 43 85 l42 79 712 0 711 0
41 -75z m161 -297 c0 -35 -3 -87 -6 -115 l-7 -53 -903 0 -904 0 0 69 c0 37 -3
89 -6 115 l-7 46 917 0 916 0 0 -62z m270 -373 l0 -75 -1179 0 c-1066 0 -1179
2 -1185 16 -3 9 -6 42 -6 75 l0 59 1185 0 1185 0 0 -75z"/>
</g>
</svg>
