<?xml version="1.0" standalone="no"?>
<!DOCTYPE svg PUBLIC "-//W3C//DTD SVG 20010904//EN"
 "http://www.w3.org/TR/2001/REC-SVG-20010904/DTD/svg10.dtd">
<svg version="1.0" xmlns="http://www.w3.org/2000/svg"
 width="228.000000pt" height="296.000000pt" viewBox="0 0 228.000000 296.000000"
 preserveAspectRatio="xMidYMid meet">

<g transform="translate(0.000000,296.000000) scale(0.100000,-0.100000)"
fill="#000000" stroke="none">
<path d="M1036 2949 c-98 -23 -216 -110 -276 -205 -59 -93 -75 -262 -36 -373
l16 -43 -78 -83 c-130 -137 -192 -286 -192 -461 0 -145 41 -273 129 -403 l29
-44 -80 -59 c-257 -190 -435 -487 -508 -846 -18 -91 -40 -306 -40 -393 l0 -39
1135 0 c624 0 1135 3 1135 8 -1 97 -25 355 -39 429 -36 186 -113 373 -218 532
-71 107 -213 256 -304 317 l-68 47 51 81 c80 127 108 228 108 392 0 155 -66
306 -191 438 l-77 82 19 54 c25 75 25 189 -1 273 -22 72 -87 167 -141 208
-110 84 -250 117 -373 88z m232 -160 c113 -56 162 -141 162 -279 0 -70 -3 -83
-40 -153 l-41 -77 48 -32 c89 -60 177 -157 218 -241 36 -73 39 -85 43 -189 9
-208 -38 -316 -197 -457 l-79 -69 90 -37 c317 -132 541 -436 627 -851 11 -54
23 -136 27 -181 l7 -83 -998 0 -998 0 7 73 c32 356 165 659 377 862 95 91 168
138 286 185 l81 32 -69 59 c-167 144 -233 302 -209 495 22 170 107 298 267
400 l52 33 -39 67 c-65 112 -74 193 -30 292 32 71 76 118 142 151 51 26 73 31
133 31 60 0 82 -5 133 -31z"/>
</g>
</svg>
