<?xml version="1.0" standalone="no"?>
<!DOCTYPE svg PUBLIC "-//W3C//DTD SVG 20010904//EN"
 "http://www.w3.org/TR/2001/REC-SVG-20010904/DTD/svg10.dtd">
<svg version="1.0" xmlns="http://www.w3.org/2000/svg"
 width="320.000000pt" height="322.000000pt" viewBox="0 0 320.000000 322.000000"
 preserveAspectRatio="xMidYMid meet">

<g transform="translate(0.000000,322.000000) scale(0.100000,-0.100000)"
fill="#000000" stroke="none">
<path d="M1510 3211 c-82 -27 -167 -109 -194 -188 -35 -103 -12 -219 57 -291
l32 -33 -22 -17 c-12 -9 -64 -42 -114 -72 -204 -123 -381 -304 -464 -475 -60
-122 -85 -231 -85 -370 0 -201 46 -314 181 -447 49 -48 84 -90 79 -93 -26 -16
-106 -156 -127 -223 -30 -93 -41 -241 -24 -295 30 -91 141 -150 405 -218 77
-20 36 -27 -226 -39 -568 -26 -691 -40 -793 -90 -112 -54 -205 -153 -205 -218
0 -29 8 -43 44 -78 72 -68 136 -74 316 -29 53 13 154 18 545 25 431 7 490 10
580 29 l101 22 104 -22 c94 -19 154 -22 580 -29 298 -5 488 -12 510 -19 19 -6
71 -18 115 -26 68 -13 87 -13 132 -2 87 23 153 81 153 135 0 30 -85 113 -175
171 -134 88 -212 103 -625 121 -314 13 -430 21 -455 30 -25 10 -18 13 85 34
84 18 212 71 271 112 54 37 79 94 79 178 0 148 -52 297 -136 394 l-43 49 59
41 c94 67 177 197 211 332 22 86 17 260 -9 353 -78 273 -269 502 -559 667 -51
29 -93 57 -93 62 0 6 14 27 30 48 113 142 62 367 -102 451 -46 24 -171 36
-218 20z m148 -135 c58 -31 102 -96 102 -153 0 -43 -39 -110 -76 -133 -45 -28
-132 -30 -171 -5 -86 57 -107 163 -46 235 52 62 134 86 191 56z m72 -514 c364
-174 591 -458 607 -762 11 -194 -58 -341 -204 -436 l-52 -34 -487 0 -487 0
-48 31 c-264 169 -277 565 -30 872 108 133 229 225 426 323 132 66 149 66 275
6z m378 -1437 c63 -69 112 -149 98 -162 -10 -10 -1212 -11 -1222 0 -13 13 21
69 90 150 l67 77 453 0 454 0 60 -65z m-18 -314 c142 -6 145 -6 148 -29 9 -65
-141 -133 -369 -168 -131 -20 -493 -14 -609 10 -117 25 -229 66 -265 97 -32
29 -59 81 -48 93 8 8 955 5 1143 -3z m-442 -400 c123 -62 287 -87 710 -106
351 -17 424 -24 505 -55 55 -22 147 -84 147 -100 0 -15 -22 -12 -155 15 -112
23 -139 25 -425 25 -393 1 -607 13 -733 41 l-97 22 -98 -23 c-91 -22 -127 -24
-562 -31 -401 -7 -479 -11 -565 -28 -162 -33 -205 -36 -205 -18 0 21 73 73
135 96 74 28 184 39 545 56 423 20 550 39 682 100 64 30 69 30 116 6z"/>
<path d="M1549 2274 c-8 -10 -15 -52 -17 -109 l-4 -92 -89 -7 c-49 -4 -96 -9
-105 -13 -25 -9 -36 -51 -22 -81 16 -32 41 -40 141 -41 l77 -1 0 -79 c0 -90
10 -125 40 -141 55 -29 90 19 97 134 l6 84 87 4 c99 3 130 20 130 69 0 41 -32
57 -131 65 l-86 7 -6 77 c-5 75 -18 117 -41 132 -19 13 -63 9 -77 -8z"/>
</g>
</svg>
